<svg width="111" height="110" viewBox="0 0 111 110" fill="none" xmlns="http://www.w3.org/2000/svg">
<circle cx="55.7529" cy="54.788" r="52.788" stroke="#FF5672" stroke-width="4"/>
<path d="M67.6914 54.7878H73.6619V66.7288H67.6914V54.7878Z" fill="#FF5672"/>
<path d="M79.6328 39.8616V33.8911C79.6328 30.5984 76.9551 27.9207 73.6624 27.9207H34.8542C29.9166 27.9207 25.8984 31.9388 25.8984 36.8764V72.6993C25.8984 79.2698 31.254 81.6551 34.8542 81.6551H79.6328C82.9256 81.6551 85.6033 78.9773 85.6033 75.6846V45.8321C85.6033 42.5394 82.9256 39.8616 79.6328 39.8616ZM34.8542 33.8911H73.6624V39.8616H34.8542C34.0855 39.8273 33.3598 39.4977 32.828 38.9416C32.2963 38.3856 31.9995 37.6458 31.9995 36.8764C31.9995 36.107 32.2963 35.3672 32.828 34.8111C33.3598 34.2551 34.0855 33.9255 34.8542 33.8911ZM79.6328 75.6846H34.89C33.5108 75.6487 31.8689 75.1024 31.8689 72.6993V45.2799C32.8063 45.6172 33.8004 45.8321 34.8542 45.8321H79.6328V75.6846Z" fill="#FF5672"/>
</svg>
