<svg width="110" height="110" viewBox="0 0 110 110" fill="none" xmlns="http://www.w3.org/2000/svg">
<path d="M55.2097 41.6763C48.1329 41.6763 42.5078 47.4829 42.5078 54.7879C42.5078 62.093 48.1329 67.8996 55.2097 67.8996C62.2865 67.8996 67.9117 62.093 67.9117 54.7879C67.9117 47.4829 62.2865 41.6763 55.2097 41.6763ZM55.2097 64.1534C50.129 64.1534 46.1369 60.0326 46.1369 54.7879C46.1369 49.5433 50.129 45.4225 55.2097 45.4225C60.2905 45.4225 64.2825 49.5433 64.2825 54.7879C64.2825 60.0326 60.2905 64.1534 55.2097 64.1534Z" fill="#FF5672"/>
<path d="M81.8845 48.6069L76.8038 46.9211L75.715 44.1115L78.2554 39.2414C78.7998 38.1176 78.6183 36.6191 77.7111 35.6826L73.3561 31.1871C72.4488 30.2506 70.9972 30.0633 69.9085 30.6252L65.1906 33.2475L62.4688 32.1237L60.8357 26.879C60.4727 25.7552 59.384 24.8186 58.1138 24.8186H51.9443C50.6741 24.8186 49.5854 25.7552 49.4039 27.0663L47.7708 32.311C46.6821 32.4983 45.7748 32.8729 44.8675 33.4348L40.1497 30.8125C39.0609 30.2506 37.6093 30.4379 36.702 31.3744L32.3471 35.8699C31.4398 36.8064 31.2583 38.3049 31.8027 39.4287L34.1616 44.1115C33.7987 45.048 33.4358 46.1719 33.0729 47.1084L27.9921 48.7942C26.9034 49.1688 25.9961 50.2927 25.9961 51.6039V57.9724C25.9961 59.2835 26.9034 60.4074 28.1736 60.782L33.2543 62.4678L34.3431 65.2774L31.8027 70.1475C31.2583 71.2714 31.4398 72.7698 32.3471 73.7064L36.702 78.2018C37.6093 79.1383 39.0609 79.3257 40.1497 78.7637L44.8675 76.1414L47.5894 77.2653L49.2225 82.6972C49.5854 83.8211 50.6741 84.7576 51.9443 84.7576H58.1138C59.384 84.7576 60.4727 83.8211 60.8357 82.6972L62.4688 77.2653L65.1906 76.1414L69.9085 78.7637C70.9972 79.3257 72.4488 79.1383 73.3561 78.2018L77.7111 73.7064C78.6183 72.7698 78.7998 71.2714 78.2554 70.1475L75.715 65.2774L76.8038 62.4678L82.066 60.782C83.1547 60.4074 84.062 59.2835 84.062 57.9724V51.6039C84.062 50.2927 83.1547 48.9815 81.8845 48.6069ZM80.4329 57.4104L73.9005 59.4709L73.719 60.4074L72.0859 64.3409L71.5416 65.2774L74.8078 71.4587L71.1786 75.2048L65.1906 71.8333L64.2833 72.3952C63.0131 73.1444 61.7429 73.7064 60.4727 74.081L59.5655 74.2683L57.5694 81.0114H52.4887L50.4927 74.2683L49.5854 74.081L45.7748 72.3952L44.8675 71.8333L38.8795 75.2048L35.2504 71.4587L38.5166 65.2774L37.9722 64.3409C37.2464 63.0297 36.702 61.7186 36.3391 60.4074L36.1576 59.4709L29.6252 57.4104V52.1658L35.7947 50.2927L36.1576 49.3561C36.5205 47.8577 37.0649 46.5465 37.7907 45.2353L38.3351 44.2988L35.2504 38.1176L38.8795 34.3714L44.6861 37.743L45.5933 37.181C46.8635 36.4318 48.1337 35.8699 49.5854 35.4952L50.4927 35.1206L52.4887 28.5648H57.5694L59.5655 35.1206L60.4727 35.4952C61.7429 35.8699 63.0131 36.4318 64.2833 37.181L65.1906 37.743L71.1786 34.3714L74.8078 38.1176L71.5416 44.2988L72.0859 45.2353C72.8117 46.5465 73.3561 47.8577 73.719 49.1688L73.9005 50.1054L80.4329 52.1658V57.4104Z" fill="#FF5672"/>
<circle cx="55.0302" cy="54.788" r="52.788" stroke="#FF5672" stroke-width="4"/>
</svg>
