<svg width="111" height="110" viewBox="0 0 111 110" fill="none" xmlns="http://www.w3.org/2000/svg">
<path fill-rule="evenodd" clip-rule="evenodd" d="M81.8841 36.1591C82.509 34.9955 81.092 35.3484 81.092 35.3484C81.092 35.3484 71.6447 44.417 70.3317 43.3057C69.0186 42.1945 79.5816 33.5028 78.3317 31.8787C77.1751 30.3647 67.8949 41.173 66.7802 39.8529C65.676 38.5354 74.7268 29.0757 74.7268 29.0757C74.7268 29.0757 75.0709 27.6515 73.9161 28.2756C59.686 35.928 57.8734 43.0621 57.8734 43.0621C57.8734 43.0621 57.3835 44.4516 58.4468 45.5255C58.5508 45.6189 32.4848 71.5373 28.9955 75.0364C27.2975 76.7326 33.5275 82.8604 35.2148 81.1642C38.705 77.6651 64.5728 51.5582 64.6661 51.6551C65.7391 52.7263 67.1251 52.2347 67.1251 52.2347C67.1251 52.2347 74.2477 50.4167 81.8841 36.1591Z" fill="#FF5672"/>
<path fill-rule="evenodd" clip-rule="evenodd" d="M55.3984 62.3506C62.3352 69.3025 74.0299 81.0185 74.0299 81.0185C74.0299 81.0185 79.1344 79.3481 79.8536 75.0365L61.296 56.4424C59.3283 58.41 57.3625 60.3794 55.3984 62.3506Z" fill="#FF5672"/>
<path fill-rule="evenodd" clip-rule="evenodd" d="M46.2699 56.325C48.7582 53.8387 51.2435 51.3496 53.7259 48.8575L33.5565 28.6499C33.5565 28.6499 33.192 28.2676 32.3893 29.0739C30.7953 30.6625 27.7114 40.7846 40.7857 53.8785C42.858 55.9552 44.6609 56.2432 46.2699 56.325Z" fill="#FF5672"/>
<circle cx="55.374" cy="54.788" r="52.788" stroke="#FF5672" stroke-width="4"/>
</svg>
