<svg width="111" height="110" viewBox="0 0 111 110" fill="none" xmlns="http://www.w3.org/2000/svg">
<g clip-path="url(#clip0)">
<path d="M84.1017 76.1237H33.3965V72.5677H80.4799V47.676H84.1017V76.1237Z" fill="#FF5672"/>
<path d="M73.2358 40.5643V65.4559H29.7741V40.5643H73.2358ZM76.8576 37.0083H26.1523V69.0119H76.8576V37.0083Z" fill="#FF5672"/>
<path d="M37.0183 47.6761H33.3965V58.3439H37.0183V61.8999H51.5055C49.1041 61.8999 46.801 60.9633 45.103 59.2961C43.4049 57.6289 42.451 55.3677 42.451 53.01C42.451 50.6523 43.4049 48.3911 45.103 46.7239C46.801 45.0567 49.1041 44.1201 51.5055 44.1201H37.0183V47.6761Z" fill="#FF5672"/>
<path d="M65.9931 47.6761V44.1201H51.5059C53.9073 44.1201 56.2103 45.0567 57.9084 46.7239C59.6064 48.3911 60.5604 50.6523 60.5604 53.01C60.5604 55.3677 59.6064 57.6289 57.9084 59.2961C56.2103 60.9633 53.9073 61.8999 51.5059 61.8999H65.9931V58.3439H69.6149V47.6761H65.9931Z" fill="#FF5672"/>
</g>
<circle cx="55.6533" cy="54.788" r="52.788" stroke="#FF5672" stroke-width="4"/>
<defs>
<clipPath id="clip0">
<rect width="57.9489" height="56.8953" fill="white" transform="translate(26.1523 26.3403)"/>
</clipPath>
</defs>
</svg>
