<svg width="40" height="26" viewBox="0 0 40 26" fill="none" xmlns="http://www.w3.org/2000/svg">
<path d="M38.5714 0H1.42857C0.638393 0 0 0.528125 0 1.18182V24.8182C0 25.4719 0.638393 26 1.42857 26H38.5714C39.3616 26 40 25.4719 40 24.8182V1.18182C40 0.528125 39.3616 0 38.5714 0ZM36.7857 4.09204V23.3409H3.21429V4.09204L1.98214 3.29801L3.73661 1.43295L5.64732 2.66278H34.3571L36.2679 1.43295L38.0223 3.29801L36.7857 4.09204ZM34.3571 2.65909L20 11.892L5.64286 2.65909L3.73214 1.42926L1.97768 3.29432L3.20982 4.08835L18.4598 13.8974C18.8984 14.1793 19.4379 14.3323 19.9933 14.3323C20.5487 14.3323 21.0882 14.1793 21.5268 13.8974L36.7857 4.09204L38.0179 3.29801L36.2634 1.43295L34.3571 2.65909Z" fill="#FF5672"/>
</svg>
