<svg width="50" height="50" viewBox="0 0 50 50" fill="none" xmlns="http://www.w3.org/2000/svg">
<path d="M2.18105 7.91776L8.83732 1.26859C9.64983 0.456193 10.7373 0 11.8873 0C13.0373 0 14.1248 0.449944 14.9373 1.26859L22.1061 8.42395C22.9186 9.23635 23.3749 10.33 23.3749 11.4798C23.3749 12.6359 22.9249 13.717 22.1061 14.5357L16.5061 20.1412C17.7818 23.1133 19.6148 25.8136 21.9061 28.0965C24.1999 30.4025 26.8811 32.221 29.8562 33.5083L35.4562 27.9028C36.2687 27.0904 37.3562 26.6342 38.5062 26.6342C39.0734 26.6321 39.6354 26.7432 40.1591 26.961C40.6828 27.1789 41.1578 27.499 41.5562 27.9028L48.7312 35.0581C49.5437 35.8705 50 36.9641 50 38.114C50 39.2701 49.55 40.3512 48.7312 41.1699L42.0812 47.819C40.6937 49.2064 38.7812 50 36.8187 50C36.4124 50 36.0187 49.9688 35.6187 49.9C27.3437 48.5377 19.1311 44.132 12.4998 37.5078C5.87481 30.8711 1.47478 22.6597 0.099781 14.3795C-0.293972 12.0297 0.493538 9.6113 2.18105 7.91776ZM4.53105 13.6358C5.74981 21.0036 9.71233 28.3527 15.6811 34.3207C21.6499 40.2887 28.9937 44.2507 36.3624 45.4693C37.2874 45.6255 38.2374 45.3131 38.9125 44.6444L45.4437 38.114L38.5187 31.1836L31.0312 38.6827L30.9749 38.7389L29.6249 38.239C25.5316 36.7342 21.8145 34.3575 18.7312 31.2735C15.6479 28.1895 13.2721 24.472 11.7686 20.3787L11.2686 19.0289L18.8186 11.4861L11.8936 4.55568L5.3623 11.0861C4.6873 11.761 4.3748 12.7109 4.53105 13.6358Z" fill="#FF5672"/>
</svg>
