<svg width="77" height="77" viewBox="0 0 77 77" fill="none" xmlns="http://www.w3.org/2000/svg">
<path d="M39.9513 43.1922L39.9738 43.0869C40.41 41.2897 40.9589 39.0489 40.5303 37.0187C40.2445 35.417 39.064 34.7929 38.0563 34.7478C36.8683 34.6951 35.808 35.3719 35.5448 36.3569C35.0485 38.1616 35.4922 40.628 36.3043 43.7712C35.2816 46.2075 33.6499 49.7492 32.4543 51.8547C30.2285 53.0052 27.2433 54.7798 26.7996 57.0206C26.7094 57.4342 26.8146 57.9605 27.0628 58.4343C27.341 58.9606 27.7847 59.3667 28.3035 59.5622C28.5291 59.6449 28.7998 59.7126 29.1156 59.7126C30.4391 59.7126 32.5821 58.6448 35.4396 53.7421C35.8757 53.5992 36.3269 53.4488 36.763 53.2984C38.8083 52.6066 40.9288 51.8848 42.8463 51.5614C44.9668 52.6969 47.3806 53.4263 49.0198 53.4263C50.644 53.4263 51.2832 52.4638 51.5238 51.8848C51.9449 50.8696 51.7419 49.5913 51.0576 48.907C50.065 47.9295 47.6513 47.6738 43.8915 48.14C42.0417 47.0121 40.8311 45.4781 39.9513 43.1922ZM31.7023 54.6144C30.6571 56.1333 29.8676 56.8928 29.439 57.2236C29.9428 56.2987 30.9278 55.3212 31.7023 54.6144ZM38.2895 36.9059C38.6805 37.5751 38.6278 39.5979 38.3271 40.6205C37.9586 39.1241 37.906 37.0036 38.124 36.7555C38.1842 36.763 38.2368 36.8081 38.2895 36.9059ZM38.1691 45.9669C38.9737 47.358 39.9889 48.5536 41.1093 49.4409C39.4851 49.8094 38.0037 50.4185 36.6803 50.9599C36.3645 51.0877 36.0562 51.2155 35.7554 51.3358C36.7555 49.5236 37.5901 47.4708 38.1691 45.9669ZM49.8695 50.8922C49.8771 50.9072 49.8846 50.9298 49.8395 50.9599H49.8244L49.8094 50.9824C49.7492 51.02 49.1326 51.381 46.4782 50.3357C49.5312 50.1929 49.862 50.8847 49.8695 50.8922ZM64.2619 21.7014L48.0799 5.51934C47.6287 5.06816 47.0196 4.8125 46.3805 4.8125H14.4375C13.1065 4.8125 12.0312 5.88779 12.0312 7.21875V69.7812C12.0312 71.1122 13.1065 72.1875 14.4375 72.1875H62.5625C63.8935 72.1875 64.9688 71.1122 64.9688 69.7812V23.4083C64.9688 22.7691 64.7131 22.1525 64.2619 21.7014ZM59.4193 24.5137H45.2676V10.3619L59.4193 24.5137ZM59.5547 66.7734H17.4453V10.2266H40.1543V26.4688C40.1543 27.3064 40.487 28.1097 41.0793 28.7019C41.6716 29.2942 42.4749 29.627 43.3125 29.627H59.5547V66.7734Z" fill="#FF5672"/>
</svg>
