<svg width="70" height="32" viewBox="0 0 70 32" fill="none" xmlns="http://www.w3.org/2000/svg">
<rect x="1" y="1" width="68" height="30" fill="#F5F5F5"/>
<path d="M16.271 3.58035L6.12233 12.5569L6.81745 13.3894L12.2393 8.81385L12.7469 9.29343L14.4514 7.95524C17.4765 5.36525 16.6668 3.61571 16.271 3.58035Z" fill="black"/>
<path d="M7.69496 4.49673L9.84832 6.34038L9.39908 6.88665L6.59569 4.48646L5.986 5.22784L8.78939 7.62804L8.34014 8.17433L6.18678 6.33068C6.07794 6.2375 5.88229 6.04761 5.59983 5.76102C5.30363 6.07881 5.10077 6.30429 4.99125 6.43746L8.13871 9.13223C8.67265 9.58937 9.60707 9.29849 10.0551 8.75364L15.5583 13.4554L16.2258 12.687L10.7547 7.95868C11.2028 7.41383 11.2718 6.42878 10.7379 5.97164L7.59041 3.27687C7.48292 3.40758 7.29513 3.64761 7.02706 3.99693L7.69496 4.49673Z" fill="black"/>
<path fill-rule="evenodd" clip-rule="evenodd" d="M21.8457 12.2209V3.66351H22.9555V7.9072L27.1203 3.66351H28.6249L25.1066 7.13084L24.3285 7.88969L22.9555 9.25561V12.2209H21.8457ZM25.6619 7.9072L28.7793 12.2209H27.3148L24.8383 8.72908L25.6619 7.9072ZM29.7941 12.2209V3.66351H30.9326L35.3376 10.3822V3.66351H36.4017V12.2209H35.2632L30.8582 5.49641V12.2209H29.7941ZM38.5549 12.2209V3.66351H39.6648V12.2209H38.5549ZM45.6453 8.86451V7.8605L49.1979 7.85466V11.0301C48.6525 11.4738 48.09 11.8075 47.5103 12.0312C46.9305 12.255 46.3356 12.3669 45.7254 12.3669C44.9016 12.3669 44.1531 12.1869 43.4799 11.8269C42.8068 11.467 42.2986 10.9465 41.9553 10.2655C41.6121 9.58444 41.4405 8.82365 41.4405 7.98308C41.4405 7.1503 41.6111 6.37298 41.9525 5.6511C42.2938 4.92922 42.7849 4.39317 43.4256 4.04293C44.0663 3.69269 44.8043 3.51758 45.6395 3.51758C46.246 3.51758 46.7942 3.61778 47.2843 3.8182C47.7744 4.01861 48.1586 4.29782 48.437 4.65584C48.7154 5.01386 48.9271 5.48084 49.072 6.05679L48.0709 6.33698C47.945 5.90112 47.7887 5.55868 47.6018 5.30962C47.4149 5.06056 47.1479 4.86112 46.8009 4.7113C46.4538 4.56147 46.0686 4.48656 45.6453 4.48656C45.138 4.48656 44.6994 4.56537 44.3295 4.72297C43.9595 4.88058 43.6611 5.0878 43.4342 5.34464C43.2073 5.60148 43.0309 5.88361 42.905 6.19104C42.6914 6.72029 42.5846 7.29428 42.5846 7.91304C42.5846 8.67578 42.7134 9.31398 42.9708 9.82766C43.2282 10.3413 43.6029 10.7227 44.0949 10.9718C44.5869 11.2208 45.1094 11.3453 45.6624 11.3453C46.143 11.3453 46.6121 11.251 47.0697 11.0622C47.5274 10.8735 47.8745 10.6721 48.1109 10.4581V8.86451H45.6453ZM50.9679 12.2209V3.66351H52.0777V7.17754H56.437V3.66351H57.5468V12.2209H56.437V8.18739H52.0777V12.2209H50.9679ZM61.628 12.2209V4.67336H58.8648V3.66351H65.5124V4.67336H62.7378V12.2209H61.628Z" fill="black"/>
<path fill-rule="evenodd" clip-rule="evenodd" d="M29.0972 28.6818H25.5247C26.1671 27.1308 24.7297 26.0432 23.9611 26.0922C24.0439 24.6481 23.3986 23.6754 22.0251 23.174L22.0519 17.2396C22.0519 16.2752 22.0199 15.605 21.9238 14.6733C22.6764 14.7223 23.0767 14.7223 24.4698 14.7223H28.9211C31.6592 14.7223 33.1963 15.981 33.1963 18.2367C33.1963 19.3319 32.8921 20.1328 32.2516 20.6886C31.8994 21.0155 31.5631 21.179 30.8105 21.4242C31.7072 21.604 32.1556 21.7838 32.6359 22.2251C33.3405 22.8299 33.6927 23.7126 33.6927 24.8568C33.6927 27.3251 32.0755 28.6818 29.0972 28.6818ZM25.8948 20.0675H28.2966C28.9371 20.0675 29.3374 19.6425 29.3374 18.9886C29.3374 18.3348 28.9531 17.9588 28.2646 17.9588H25.8948V20.0675ZM25.8948 25.4126H28.4408C29.2093 25.4126 29.6897 24.9385 29.6897 24.1703C29.6897 23.402 29.2093 22.928 28.4247 22.928H25.8948V25.4126ZM35.5448 14.7223C35.6569 15.4579 35.6729 15.9483 35.6729 17.3377V26.0664C35.6729 27.276 35.6409 27.9789 35.5448 28.6818H39.74C39.6439 27.9626 39.6119 27.2924 39.6119 26.0664V17.3377C39.6119 16.0137 39.6439 15.4416 39.74 14.7223H35.5448ZM49.566 18.204H51.2633C52.4162 18.204 53.0247 18.2367 53.8413 18.3184V14.6079C53.0407 14.6896 52.3521 14.7223 51.2633 14.7223H43.8497C42.873 14.7223 42.1524 14.6896 41.3198 14.6079V18.3184C42.1364 18.2367 42.841 18.204 43.8818 18.204H45.6111V26.001C45.6111 27.0799 45.579 27.8318 45.483 28.6818H49.6941C49.5981 27.8154 49.566 27.0635 49.566 26.001V18.204ZM59.4081 25.2818V23.2386H62.5465C63.7314 23.2386 64.3879 23.2713 65.1565 23.353V19.8223C64.2438 19.904 63.5713 19.9367 62.5465 19.9367H59.4242V18.1059H63.251C64.4039 18.1059 65.0604 18.1386 65.829 18.2204V14.6079C64.9323 14.6896 64.2438 14.7223 63.251 14.7223H57.9671C56.574 14.7223 56.1737 14.7223 55.4211 14.6733C55.5172 15.4579 55.5492 16.0954 55.5492 17.2396V26.1972C55.5492 27.4395 55.5172 28.0279 55.4211 28.7308C56.1897 28.6818 56.606 28.6818 57.9831 28.6818H63.4592C64.6441 28.6818 65.3006 28.7145 66.0372 28.7962V25.1674C65.2686 25.2491 64.6601 25.2818 63.4912 25.2818H59.4081Z" fill="black"/>
<path d="M16.501 17.1936L18.1549 15.6686V14.8574L15.9382 16.4664L14.8946 18.3046H10.0352V19.0445L10.7364 19.7706L11.6891 28.7468H16.501L17.4537 19.7706L18.1549 19.0445V18.3046H16.2052L16.501 17.1936Z" fill="black"/>
<path d="M10.4266 24.2959H4.29689L4.01562 25.0005L4.29689 25.7051H10.5803L10.4266 24.2959Z" fill="black"/>
<path d="M9.99707 21.2056H6.63794C5.4788 21.2056 4.53906 22.1612 4.53906 23.3401V23.5934H10.2805L9.99707 21.2056Z" fill="black"/>
<path d="M4.53906 26.6611C4.53906 27.8399 5.4788 28.7955 6.63794 28.7955H10.2162C10.4212 28.7955 10.755 28.6964 10.9423 28.6406L10.6913 26.4078L4.53906 26.4077V26.6611Z" fill="black"/>
<rect x="1" y="1" width="68" height="30" stroke="black" stroke-width="2"/>
</svg>
