<svg width="111" height="110" viewBox="0 0 111 110" fill="none" xmlns="http://www.w3.org/2000/svg">
<circle cx="55.6025" cy="54.788" r="52.788" stroke="#FF5672" stroke-width="4"/>
<path d="M85.4667 50.4443C83.359 50.4443 81.5878 51.8388 81.0826 53.8221H76.3668C76.1042 49.0054 74.1931 44.7327 71.1953 41.385L74.5364 38.055C75.2266 38.4634 76.0134 38.6914 76.8363 38.6914C78.0471 38.6914 79.1856 38.2227 80.0416 37.3666C80.898 36.5102 81.3696 35.3734 81.3696 34.1625C81.3696 32.9514 80.898 31.814 80.0417 30.9579C79.1855 30.1012 78.047 29.6303 76.8363 29.6303C75.6253 29.6303 74.4868 30.1018 73.6309 30.9579C72.7745 31.8143 72.303 32.9529 72.303 34.164C72.303 34.9869 72.5256 35.7738 72.9339 36.4639L69.6096 39.8047C66.2618 36.8069 61.9836 34.8959 57.167 34.6332V29.9176C59.1503 29.4123 60.5503 27.6409 60.5503 25.5333C60.55 23.0338 58.5079 21 56.0084 21C53.5087 21 51.4877 23.0338 51.4877 25.5333C51.4877 27.6409 52.9169 29.4122 54.9003 29.9176V34.6332C50.0836 34.8958 45.7722 36.8069 42.4244 39.8047L39.075 36.4639C39.4833 35.7738 39.7018 34.9869 39.7018 34.164C39.7018 32.9529 39.228 31.8145 38.3719 30.9585C37.5157 30.1022 36.3762 29.6307 35.1653 29.6307C33.9543 29.6307 32.8155 30.1022 31.9592 30.9585C31.103 31.8147 30.6311 32.953 30.6311 34.164C30.6311 35.3748 31.1026 36.513 31.9587 37.3691C32.8151 38.2255 33.9534 38.697 35.1641 38.697C35.987 38.697 36.7739 38.4745 37.464 38.0664L40.8051 41.3851C37.8071 44.7328 35.8959 49.0055 35.6332 53.8222H30.9176C30.4122 51.8389 28.641 50.4444 26.5333 50.4444C24.0338 50.4443 22 52.4893 22 54.989C22 57.4886 24.0338 59.5054 26.5333 59.5054C28.641 59.5054 30.4121 58.0721 30.9176 56.0888H35.6331C35.8958 60.9055 37.8069 65.2224 40.8047 68.5704L37.4639 71.9223C36.7738 71.5142 35.9869 71.2973 35.164 71.2973C33.9531 71.2973 32.8147 71.7716 31.9585 72.6279C31.1023 73.484 30.6307 74.6237 30.6307 75.8348C30.6307 77.0457 31.1022 78.1851 31.9585 79.0412C32.8423 79.9247 34.0032 80.3671 35.164 80.3671C36.3248 80.3671 37.4858 79.9252 38.3695 79.0415C39.2258 78.1853 39.6974 77.047 39.6974 75.8363C39.6974 75.0131 39.4748 74.2265 39.0667 73.5364L42.424 70.1956C45.7718 73.1933 50.0835 75.1044 54.9002 75.3669V80.0826C52.9169 80.5878 51.4834 82.3592 51.4834 84.4667C51.4834 86.9664 53.5087 89 56.0084 89C58.508 89 60.5543 86.9664 60.5543 84.4667C60.5543 82.3591 59.1502 80.5878 57.1669 80.0826V75.3668C61.9836 75.1042 66.2618 73.1931 69.6094 70.1951L72.942 73.5361C72.5338 74.2262 72.3071 75.0131 72.3071 75.836C72.3071 77.0469 72.7766 78.1855 73.6329 79.0415C74.5166 79.9252 75.6762 80.3671 76.8372 80.3671C77.9981 80.3671 79.1585 79.9252 80.0422 79.0415C80.8985 78.1853 81.3698 77.0467 81.3698 75.836C81.3698 74.6249 80.8981 73.4866 80.0419 72.6306C79.1856 71.7742 78.0471 71.3027 76.8364 71.3027C76.0135 71.3027 75.2266 71.5252 74.5364 71.9333L71.1955 68.5704C74.1933 65.2224 76.1042 60.9055 76.3668 56.0888H81.0824C81.5877 58.0721 83.359 59.511 85.4666 59.511C87.9662 59.511 89.9999 57.4774 89.9999 54.9777C90 52.478 87.9664 50.4443 85.4667 50.4443ZM75.2335 32.5611C75.6616 32.133 76.2307 31.8973 76.8363 31.8973C77.4416 31.8973 78.0109 32.133 78.4391 32.5613C78.8671 32.9891 79.103 33.5582 79.103 34.164C79.103 34.7693 78.8671 35.3386 78.4389 35.7666C78.0109 36.1947 77.4418 36.4304 76.8363 36.4304C76.2308 36.4304 75.6616 36.1947 75.2335 35.7666L75.2334 35.7664C74.8053 35.3386 74.5696 34.7695 74.5696 34.1641C74.5696 33.5582 74.8053 32.9891 75.2335 32.5611ZM36.7669 35.7662L36.7668 35.7665C36.3387 36.1945 35.7696 36.4303 35.164 36.4303C34.5586 36.4303 33.9892 36.1945 33.5611 35.7665C33.133 35.3384 32.8973 34.7693 32.8973 34.1638C32.8973 33.5582 33.133 32.989 33.5612 32.5609C33.9893 32.1329 34.5586 31.8971 35.164 31.8971C35.7695 31.8971 36.3387 32.1329 36.7669 32.5612C37.1949 32.989 37.4308 33.5581 37.4308 34.1638C37.4308 34.7693 37.1948 35.3386 36.7669 35.7662ZM26.5333 57.2667C25.2835 57.2667 24.2666 56.2499 24.2666 55C24.2666 53.7502 25.2834 52.7333 26.5333 52.7333C27.7832 52.7333 28.8 53.7501 28.8 55C28.8 56.2499 27.7832 57.2667 26.5333 57.2667ZM36.7669 77.4389C35.883 78.3224 34.4449 78.3224 33.5612 77.4389C33.133 77.0106 32.8973 76.4415 32.8973 75.836C32.8973 75.2304 33.133 74.6612 33.5612 74.2331C33.9893 73.8051 34.5586 73.5693 35.164 73.5693C35.7695 73.5693 36.3387 73.8051 36.7668 74.2331L36.7669 74.2334C37.1949 74.6612 37.4308 75.2303 37.4308 75.836C37.4308 76.4415 37.1948 77.0106 36.7669 77.4389ZM75.2334 74.2335L75.2335 74.2332C75.6616 73.8052 76.2307 73.5694 76.8363 73.5694C77.4416 73.5694 78.0109 73.8052 78.4391 74.2335C78.8671 74.6613 79.103 75.2304 79.103 75.8362C79.103 76.4415 78.8671 77.0108 78.4391 77.4391C77.5551 78.3225 76.1171 78.3225 75.2336 77.4391C74.8055 77.0108 74.5697 76.4416 74.5697 75.8362C74.5696 75.2304 74.8053 74.6613 75.2334 74.2335ZM53.7333 25.5333C53.7333 24.2835 54.7501 23.2666 56 23.2666C57.2499 23.2666 58.2667 24.2834 58.2667 25.5333C58.2667 26.7832 57.2499 27.8 56 27.8C54.7502 27.8 53.7333 26.7832 53.7333 25.5333ZM58.2667 84.4667C58.2667 85.7166 57.2499 86.7334 56 86.7334C54.7502 86.7334 53.7333 85.7166 53.7333 84.4667C53.7333 83.2169 54.7501 82.2 56 82.2C57.2499 82.2 58.2667 83.2168 58.2667 84.4667ZM56 73.1333C46.0013 73.1333 37.8667 64.9988 37.8667 55C37.8667 45.0012 46.0013 36.8667 56 36.8667C65.9987 36.8667 74.1333 45.0012 74.1333 55C74.1333 64.9989 65.9988 73.1333 56 73.1333ZM85.4667 57.2667C84.2169 57.2667 83.2 56.2499 83.2 55C83.2 53.7502 84.2168 52.7333 85.4667 52.7333C86.7166 52.7333 87.7334 53.7501 87.7334 55C87.7333 56.2499 86.7165 57.2667 85.4667 57.2667Z" fill="#FF5672"/>
<path d="M53.7336 42.5332C49.984 42.5332 46.9336 45.5838 46.9336 49.3332C46.9336 53.0826 49.984 56.1332 53.7336 56.1332C57.4832 56.1332 60.5336 53.0826 60.5336 49.3332C60.5336 45.5838 57.4833 42.5332 53.7336 42.5332ZM53.7336 53.8666C51.2339 53.8666 49.2003 51.833 49.2003 49.3333C49.2003 46.8337 51.2341 44.8 53.7336 44.8C56.2333 44.8 58.2669 46.8338 58.2669 49.3333C58.267 51.8329 56.2333 53.8666 53.7336 53.8666Z" fill="#FF5672"/>
<path d="M58.2677 58.3999C55.768 58.3999 53.7344 60.4337 53.7344 62.9332C53.7344 65.4328 55.7681 67.4665 58.2677 67.4665C60.7673 67.4665 62.801 65.4328 62.801 62.9332C62.801 60.4337 60.7673 58.3999 58.2677 58.3999ZM58.2677 65.1999C57.0179 65.1999 56.001 64.1831 56.001 62.9332C56.001 61.6834 57.0178 60.6665 58.2677 60.6665C59.5176 60.6665 60.5344 61.6833 60.5344 62.9332C60.5343 64.1831 59.5174 65.1999 58.2677 65.1999Z" fill="#FF5672"/>
</svg>
